{
  "accessors": [
    {
      "bufferView": 2,
      "componentType": 5126,
      "count": 7586,
      "max": [
        2.019646167755127,
        1.1138591766357422,
        0.21587364375591278
      ],
      "min": [
        -2.019646167755127,
        -1.1372262239456177,
        -0.3505101799964905
      ],
      "type": "VEC3"
    },
    {
      "bufferView": 2,
      "byteOffset": 91032,
      "componentType": 5126,
      "count": 7586,
      "max": [
        1.0,
        1.0,
        1.0
      ],
      "min": [
        -1.0,
        -1.0,
        -1.0
      ],
      "type": "VEC3"
    },
    {
      "bufferView": 3,
      "componentType": 5126,
      "count": 7586,
      "max": [
        0.998634934425354,
        1.0,
        0.9995607733726501,
        1.0
      ],
      "min": [
        -0.9999391436576843,
        -0.9987652897834778,
        -1.0,
        -1.0
      ],
      "type": "VEC4"
    },
    {
      "bufferView": 1,
      "componentType": 5126,
      "count": 7586,
      "max": [
        0.9462245106697083,
        0.9691405892372131
      ],
      "min": [
        0.0019260812550783157,
        0.0019275638042017817
      ],
      "type": "VEC2"
    },
    {
      "bufferView": 1,
      "byteOffset": 60688,
      "componentType": 5126,
      "count": 7586,
      "max": [
        0.9462245106697083,
        0.9691405892372131
      ],
      "min": [
        0.0019260812550783157,
        0.0019275638042017817
      ],
      "type": "VEC2"
    },
    {
      "bufferView": 1,
      "byteOffset": 121376,
      "componentType": 5126,
      "count": 7586,
      "max": [
        0.9462245106697083,
        0.9691405892372131
      ],
      "min": [
        0.0019260812550783157,
        0.0019275638042017817
      ],
      "type": "VEC2"
    },
    {
      "bufferView": 0,
      "componentType": 5125,
      "count": 36222,
      "type": "SCALAR"
    },
    {
      "bufferView": 2,
      "byteOffset": 182064,
      "componentType": 5126,
      "count": 584,
      "max": [
        1.4045391082763672,
        0.0029970556497573853,
        0.01290048286318779
      ],
      "min": [
        -1.0396060943603516,
        -0.18448087573051453,
        -0.07027620077133179
      ],
      "type": "VEC3"
    },
    {
      "bufferView": 2,
      "byteOffset": 189072,
      "componentType": 5126,
      "count": 584,
      "max": [
        1.0,
        1.0,
        0.9999985098838806
      ],
      "min": [
        -1.0,
        -1.0,
        -1.0
      ],
      "type": "VEC3"
    },
    {
      "bufferView": 3,
      "byteOffset": 121376,
      "componentType": 5126,
      "count": 584,
      "max": [
        1.0,
        0.9999985694885254,
        0.9999951124191284,
        1.0
      ],
      "min": [
        -0.998714804649353,
        -1.0,
        -0.9985793828964233,
        1.0
      ],
      "type": "VEC4"
    },
    {
      "bufferView": 1,
      "byteOffset": 182064,
      "componentType": 5126,
      "count": 584,
      "max": [
        0.8844295740127563,
        0.4535241425037384
      ],
      "min": [
        0.0019289180636405945,
        0.0019289981573820114
      ],
      "type": "VEC2"
    },
    {
      "bufferView": 1,
      "byteOffset": 186736,
      "componentType": 5126,
      "count": 584,
      "max": [
        0.8844295740127563,
        0.4535241425037384
      ],
      "min": [
        0.0019289180636405945,
        0.0019289981573820114
      ],
      "type": "VEC2"
    },
    {
      "bufferView": 1,
      "byteOffset": 191408,
      "componentType": 5126,
      "count": 584,
      "max": [
        0.8844295740127563,
        0.4535241425037384
      ],
      "min": [
        0.0019289180636405945,
        0.0019289981573820114
      ],
      "type": "VEC2"
    },
    {
      "bufferView": 0,
      "byteOffset": 144888,
      "componentType": 5125,
      "count": 2736,
      "type": "SCALAR"
    },
    {
      "bufferView": 2,
      "byteOffset": 196080,
      "componentType": 5126,
      "count": 1506,
      "max": [
        1.3923110961914063,
        0.20542797446250916,
        0.012287348508834839
      ],
      "min": [
        -1.0489003658294678,
        -0.0035967305302619934,
        -0.08035798370838165
      ],
      "type": "VEC3"
    },
    {
      "bufferView": 2,
      "byteOffset": 214152,
      "componentType": 5126,
      "count": 1506,
      "max": [
        1.0,
        0.9999894499778748,
        0.9999624490737915
      ],
      "min": [
        -1.0,
        -0.9999894499778748,
        -0.9999491572380066
      ],
      "type": "VEC3"
    },
    {
      "bufferView": 3,
      "byteOffset": 130720,
      "componentType": 5126,
      "count": 1506,
      "max": [
        0.999983549118042,
        0.9999696612358093,
        0.9999942779541016,
        1.0
      ],
      "min": [
        -1.0,
        -0.9999774694442749,
        -0.9999943375587463,
        -1.0
      ],
      "type": "VEC4"
    },
    {
      "bufferView": 1,
      "byteOffset": 196080,
      "componentType": 5126,
      "count": 1506,
      "max": [
        0.9912455081939697,
        0.38170525431632996
      ],
      "min": [
        0.4401228725910187,
        0.0134740537032485
      ],
      "type": "VEC2"
    },
    {
      "bufferView": 1,
      "byteOffset": 208128,
      "componentType": 5126,
      "count": 1506,
      "max": [
        0.9912455081939697,
        0.38170525431632996
      ],
      "min": [
        0.4401228725910187,
        0.0134740537032485
      ],
      "type": "VEC2"
    },
    {
      "bufferView": 1,
      "byteOffset": 220176,
      "componentType": 5126,
      "count": 1506,
      "max": [
        0.9912455081939697,
        0.38170525431632996
      ],
      "min": [
        0.4401228725910187,
        0.0134740537032485
      ],
      "type": "VEC2"
    },
    {
      "bufferView": 0,
      "byteOffset": 155832,
      "componentType": 5125,
      "count": 8064,
      "type": "SCALAR"
    },
    {
      "bufferView": 2,
      "byteOffset": 232224,
      "componentType": 5126,
      "count": 23652,
      "max": [
        2.470172882080078,
        1.4917265176773071,
        0.009450193494558334
      ],
      "min": [
        -2.3859074115753174,
        -3.2078309059143066,
        -0.4836713373661041
      ],
      "type": "VEC3"
    },
    {
      "bufferView": 2,
      "byteOffset": 516048,
      "componentType": 5126,
      "count": 23652,
      "max": [
        1.0,
        1.0,
        1.0
      ],
      "min": [
        -1.0,
        -1.0,
        -1.0
      ],
      "type": "VEC3"
    },
    {
      "bufferView": 3,
      "byteOffset": 154816,
      "componentType": 5126,
      "count": 23652,
      "max": [
        1.0,
        1.0,
        1.0,
        1.0
      ],
      "min": [
        -1.0,
        -1.0,
        -1.0,
        -1.0
      ],
      "type": "VEC4"
    },
    {
      "bufferView": 1,
      "byteOffset": 232224,
      "componentType": 5126,
      "count": 23652,
      "max": [
        0.9985499382019043,
        0.9998817443847656
      ],
      "min": [
        0.0006849599885754287,
        0.0016788337379693985
      ],
      "type": "VEC2"
    },
    {
      "bufferView": 1,
      "byteOffset": 421440,
      "componentType": 5126,
      "count": 23652,
      "max": [
        0.9985499382019043,
        0.9998817443847656
      ],
      "min": [
        0.0006849599885754287,
        0.0016788337379693985
      ],
      "type": "VEC2"
    },
    {
      "bufferView": 1,
      "byteOffset": 610656,
      "componentType": 5126,
      "count": 23652,
      "max": [
        0.9985499382019043,
        0.9998817443847656
      ],
      "min": [
        0.0006849599885754287,
        0.0016788337379693985
      ],
      "type": "VEC2"
    },
    {
      "bufferView": 0,
      "byteOffset": 188088,
      "componentType": 5125,
      "count": 100710,
      "type": "SCALAR"
    },
    {
      "bufferView": 2,
      "byteOffset": 799872,
      "componentType": 5126,
      "count": 25777,
      "max": [
        2.4995784759521484,
        1.4916714429855347,
        0.3728644847869873
      ],
      "min": [
        -2.4153237342834473,
        -3.207716941833496,
        -0.18837228417396545
      ],
      "type": "VEC3"
    },
    {
      "bufferView": 2,
      "byteOffset": 1109196,
      "componentType": 5126,
      "count": 25777,
      "max": [
        1.0,
        1.0,
        1.0
      ],
      "min": [
        -1.0,
        -1.0,
        -1.0
      ],
      "type": "VEC3"
    },
    {
      "bufferView": 3,
      "byteOffset": 533248,
      "componentType": 5126,
      "count": 25777,
      "max": [
        0.9997909069061279,
        1.0,
        0.9999975562095642,
        1.0
      ],
      "min": [
        -0.9999972581863403,
        -1.0,
        -1.0,
        -1.0
      ],
      "type": "VEC4"
    },
    {
      "bufferView": 1,
      "byteOffset": 799872,
      "componentType": 5126,
      "count": 25777,
      "max": [
        0.9822550415992737,
        1.0
      ],
      "min": [
        0.0,
        0.0
      ],
      "type": "VEC2"
    },
    {
      "bufferView": 1,
      "byteOffset": 1006088,
      "componentType": 5126,
      "count": 25777,
      "max": [
        0.9822550415992737,
        1.0
      ],
      "min": [
        0.0,
        0.0
      ],
      "type": "VEC2"
    },
    {
      "bufferView": 1,
      "byteOffset": 1212304,
      "componentType": 5126,
      "count": 25777,
      "max": [
        0.9822550415992737,
        1.0
      ],
      "min": [
        0.0,
        0.0
      ],
      "type": "VEC2"
    },
    {
      "bufferView": 0,
      "byteOffset": 590928,
      "componentType": 5125,
      "count": 113229,
      "type": "SCALAR"
    },
    {
      "bufferView": 2,
      "byteOffset": 1418520,
      "componentType": 5126,
      "count": 48438,
      "max": [
        1.3083946704864502,
        0.2734665274620056,
        0.029339313507080078
      ],
      "min": [
        -1.7700421810150146,
        -0.24717244505882263,
        -4.5474629402160645
      ],
      "type": "VEC3"
    },
    {
      "bufferView": 2,
      "byteOffset": 1999776,
      "componentType": 5126,
      "count": 48438,
      "max": [
        1.0,
        1.0,
        1.0
      ],
      "min": [
        -1.0,
        -1.0,
        -1.0
      ],
      "type": "VEC3"
    },
    {
      "bufferView": 3,
      "byteOffset": 945680,
      "componentType": 5126,
      "count": 48438,
      "max": [
        1.0,
        1.0,
        1.0,
        1.0
      ],
      "min": [
        -1.0,
        -1.0,
        -1.0,
        1.0
      ],
      "type": "VEC4"
    },
    {
      "bufferView": 1,
      "byteOffset": 1418520,
      "componentType": 5126,
      "count": 48438,
      "max": [
        0.997473418712616,
        0.9974721074104309
      ],
      "min": [
        0.002523183822631836,
        0.0025220264215022326
      ],
      "type": "VEC2"
    },
    {
      "bufferView": 1,
      "byteOffset": 1806024,
      "componentType": 5126,
      "count": 48438,
      "max": [
        0.997473418712616,
        0.9974721074104309
      ],
      "min": [
        0.002523183822631836,
        0.0025220264215022326
      ],
      "type": "VEC2"
    },
    {
      "bufferView": 1,
      "byteOffset": 2193528,
      "componentType": 5126,
      "count": 48438,
      "max": [
        0.997473418712616,
        0.9974721074104309
      ],
      "min": [
        0.002523183822631836,
        0.0025220264215022326
      ],
      "type": "VEC2"
    },
    {
      "bufferView": 0,
      "byteOffset": 1043844,
      "componentType": 5125,
      "count": 178731,
      "type": "SCALAR"
    },
    {
      "bufferView": 2,
      "byteOffset": 2581032,
      "componentType": 5126,
      "count": 509,
      "max": [
        0.4715244472026825,
        0.2667732834815979,
        0.7853683829307556
      ],
      "min": [
        -1.0722496509552002,
        -1.505448818206787,
        -0.0024829311296343803
      ],
      "type": "VEC3"
    },
    {
      "bufferView": 2,
      "byteOffset": 2587140,
      "componentType": 5126,
      "count": 509,
      "max": [
        1.0,
        1.0,
        0.9986516237258911
      ],
      "min": [
        -1.0,
        -1.0,
        -0.9999998807907104
      ],
      "type": "VEC3"
    },
    {
      "bufferView": 3,
      "byteOffset": 1720688,
      "componentType": 5126,
      "count": 509,
      "max": [
        1.0,
        1.0,
        1.0,
        1.0
      ],
      "min": [
        -1.0,
        -1.0,
        -1.0,
        1.0
      ],
      "type": "VEC4"
    },
    {
      "bufferView": 1,
      "byteOffset": 2581032,
      "componentType": 5126,
      "count": 509,
      "max": [
        0.9975201487541199,
        0.9971131682395935
      ],
      "min": [
        0.0024807306472212076,
        0.002479936694726348
      ],
      "type": "VEC2"
    },
    {
      "bufferView": 1,
      "byteOffset": 2585104,
      "componentType": 5126,
      "count": 509,
      "max": [
        0.9975201487541199,
        0.9971131682395935
      ],
      "min": [
        0.0024807306472212076,
        0.002479936694726348
      ],
      "type": "VEC2"
    },
    {
      "bufferView": 1,
      "byteOffset": 2589176,
      "componentType": 5126,
      "count": 509,
      "max": [
        0.9975201487541199,
        0.9971131682395935
      ],
      "min": [
        0.0024807306472212076,
        0.002479936694726348
      ],
      "type": "VEC2"
    },
    {
      "bufferView": 0,
      "byteOffset": 1758768,
      "componentType": 5125,
      "count": 1404,
      "type": "SCALAR"
    },
    {
      "bufferView": 2,
      "byteOffset": 2593248,
      "componentType": 5126,
      "count": 5590,
      "max": [
        1.3743562698364258,
        0.16830892860889435,
        0.044405508786439896
      ],
      "min": [
        -1.3734381198883057,
        -0.15854234993457794,
        -0.11406180262565613
      ],
      "type": "VEC3"
    },
    {
      "bufferView": 2,
      "byteOffset": 2660328,
      "componentType": 5126,
      "count": 5590,
      "max": [
        0.9999856352806091,
        0.8503588438034058,
        0.9998841285705566
      ],
      "min": [
        -0.9999932050704956,
        -0.9734541773796082,
        -0.6496761441230774
      ],
      "type": "VEC3"
    },
    {
      "bufferView": 3,
      "byteOffset": 1728832,
      "componentType": 5126,
      "count": 5590,
      "max": [
        0.9999977946281433,
        0.9999707937240601,
        0.9931727647781372,
        1.0
      ],
      "min": [
        -0.9999902844429016,
        -0.998392641544342,
        -0.9962431788444519,
        1.0
      ],
      "type": "VEC4"
    },
    {
      "bufferView": 1,
      "byteOffset": 2593248,
      "componentType": 5126,
      "count": 5590,
      "max": [
        0.6301474571228027,
        0.9980745315551758
      ],
      "min": [
        0.001924803713336587,
        0.0019239451503381133
      ],
      "type": "VEC2"
    },
    {
      "bufferView": 1,
      "byteOffset": 2637968,
      "componentType": 5126,
      "count": 5590,
      "max": [
        0.6301474571228027,
        0.9980745315551758
      ],
      "min": [
        0.001924803713336587,
        0.0019239451503381133
      ],
      "type": "VEC2"
    },
    {
      "bufferView": 1,
      "byteOffset": 2682688,
      "componentType": 5126,
      "count": 5590,
      "max": [
        0.6301474571228027,
        0.9980745315551758
      ],
      "min": [
        0.001924803713336587,
        0.0019239451503381133
      ],
      "type": "VEC2"
    },
    {
      "bufferView": 0,
      "byteOffset": 1764384,
      "componentType": 5125,
      "count": 28356,
      "type": "SCALAR"
    }
  ],
  "asset": {
    "extras": {
      "author": "Zerescas (https://sketchfab.com/zerescas)",
      "license": "CC-BY-4.0 (http://creativecommons.org/licenses/by/4.0/)",
      "source": "https://sketchfab.com/3d-models/sega-genesis-model-2-sega-mega-drive-d8feaa413cc847a599e6a484cc4ed2b6",
      "title": "Sega Genesis Model 2 / Sega Mega Drive"
    },
    "generator": "Sketchfab-12.66.0",
    "version": "2.0"
  },
  "bufferViews": [
    {
      "buffer": 0,
      "byteLength": 1877808,
      "name": "floatBufferViews",
      "target": 34963
    },
    {
      "buffer": 0,
      "byteLength": 2727408,
      "byteOffset": 1877808,
      "byteStride": 8,
      "name": "floatBufferViews",
      "target": 34962
    },
    {
      "buffer": 0,
      "byteLength": 2727408,
      "byteOffset": 4605216,
      "byteStride": 12,
      "name": "floatBufferViews",
      "target": 34962
    },
    {
      "buffer": 0,
      "byteLength": 1818272,
      "byteOffset": 7332624,
      "byteStride": 16,
      "name": "floatBufferViews",
      "target": 34962
    }
  ],
  "buffers": [
    {
      "byteLength": 9150896,
      "uri": "scene.bin"
    }
  ],
  "images": [
    {
      "uri": "textures/Power__Cartridge_baseColor.png"
    },
    {
      "uri": "textures/Power__Cartridge_metallicRoughness.png"
    },
    {
      "uri": "textures/Power__Cartridge_normal.png"
    },
    {
      "uri": "textures/Bottom_Case_baseColor.png"
    },
    {
      "uri": "textures/Bottom_Case_metallicRoughness.png"
    },
    {
      "uri": "textures/Bottom_Case_normal.png"
    },
    {
      "uri": "textures/Top_Case_baseColor.png"
    },
    {
      "uri": "textures/Top_Case_metallicRoughness.png"
    },
    {
      "uri": "textures/Top_Case_normal.png"
    },
    {
      "uri": "textures/Ports__Inside_baseColor.png"
    },
    {
      "uri": "textures/Ports__Inside_metallicRoughness.png"
    },
    {
      "uri": "textures/Ports__Inside_normal.png"
    },
    {
      "uri": "textures/Labels_baseColor.png"
    },
    {
      "uri": "textures/Labels_metallicRoughness.png"
    },
    {
      "uri": "textures/Labels_normal.png"
    }
  ],
  "materials": [
    {
      "doubleSided": true,
      "name": "Power__Cartridge",
      "normalTexture": {
        "index": 2
      },
      "pbrMetallicRoughness": {
        "baseColorTexture": {
          "index": 0
        },
        "metallicFactor": 0.0,
        "metallicRoughnessTexture": {
          "index": 1
        }
      }
    },
    {
      "doubleSided": true,
      "name": "Bottom_Case",
      "normalTexture": {
        "index": 5
      },
      "pbrMetallicRoughness": {
        "baseColorTexture": {
          "index": 3
        },
        "metallicFactor": 0.6826894429953365,
        "metallicRoughnessTexture": {
          "index": 4
        }
      }
    },
    {
      "doubleSided": true,
      "name": "Top_Case",
      "normalTexture": {
        "index": 8
      },
      "pbrMetallicRoughness": {
        "baseColorTexture": {
          "index": 6
        },
        "metallicFactor": 0.0,
        "metallicRoughnessTexture": {
          "index": 7
        }
      }
    },
    {
      "doubleSided": true,
      "name": "Ports__Inside",
      "normalTexture": {
        "index": 11
      },
      "pbrMetallicRoughness": {
        "baseColorTexture": {
          "index": 9
        },
        "metallicRoughnessTexture": {
          "index": 10
        }
      }
    },
    {
      "doubleSided": true,
      "name": "Labels",
      "normalTexture": {
        "index": 14
      },
      "pbrMetallicRoughness": {
        "baseColorTexture": {
          "index": 12
        },
        "metallicFactor": 0.0,
        "metallicRoughnessTexture": {
          "index": 13
        }
      }
    }
  ],
  "meshes": [
    {
      "name": "Cartridge Reader Case_Power & Cartridge_0",
      "primitives": [
        {
          "attributes": {
            "NORMAL": 1,
            "POSITION": 0,
            "TANGENT": 2,
            "TEXCOORD_0": 3,
            "TEXCOORD_1": 4,
            "TEXCOORD_2": 5
          },
          "indices": 6,
          "material": 0,
          "mode": 4
        }
      ]
    },
    {
      "name": "Cap 1_Power & Cartridge_0",
      "primitives": [
        {
          "attributes": {
            "NORMAL": 8,
            "POSITION": 7,
            "TANGENT": 9,
            "TEXCOORD_0": 10,
            "TEXCOORD_1": 11,
            "TEXCOORD_2": 12
          },
          "indices": 13,
          "material": 0,
          "mode": 4
        }
      ]
    },
    {
      "name": "Cap 2_Power & Cartridge_0",
      "primitives": [
        {
          "attributes": {
            "NORMAL": 15,
            "POSITION": 14,
            "TANGENT": 16,
            "TEXCOORD_0": 17,
            "TEXCOORD_1": 18,
            "TEXCOORD_2": 19
          },
          "indices": 20,
          "material": 0,
          "mode": 4
        }
      ]
    },
    {
      "name": "Case_Bottom Case_0",
      "primitives": [
        {
          "attributes": {
            "NORMAL": 22,
            "POSITION": 21,
            "TANGENT": 23,
            "TEXCOORD_0": 24,
            "TEXCOORD_1": 25,
            "TEXCOORD_2": 26
          },
          "indices": 27,
          "material": 1,
          "mode": 4
        }
      ]
    },
    {
      "name": "Case_Top Case_0",
      "primitives": [
        {
          "attributes": {
            "NORMAL": 29,
            "POSITION": 28,
            "TANGENT": 30,
            "TEXCOORD_0": 31,
            "TEXCOORD_1": 32,
            "TEXCOORD_2": 33
          },
          "indices": 34,
          "material": 2,
          "mode": 4
        }
      ]
    },
    {
      "name": "Controller Ports_Ports & Inside_0",
      "primitives": [
        {
          "attributes": {
            "NORMAL": 36,
            "POSITION": 35,
            "TANGENT": 37,
            "TEXCOORD_0": 38,
            "TEXCOORD_1": 39,
            "TEXCOORD_2": 40
          },
          "indices": 41,
          "material": 3,
          "mode": 4
        }
      ]
    },
    {
      "name": "Model Label_Labels_0",
      "primitives": [
        {
          "attributes": {
            "NORMAL": 43,
            "POSITION": 42,
            "TANGENT": 44,
            "TEXCOORD_0": 45,
            "TEXCOORD_1": 46,
            "TEXCOORD_2": 47
          },
          "indices": 48,
          "material": 4,
          "mode": 4
        }
      ]
    },
    {
      "name": "Power Control Panel_Power & Cartridge_0",
      "primitives": [
        {
          "attributes": {
            "NORMAL": 50,
            "POSITION": 49,
            "TANGENT": 51,
            "TEXCOORD_0": 52,
            "TEXCOORD_1": 53,
            "TEXCOORD_2": 54
          },
          "indices": 55,
          "material": 0,
          "mode": 4
        }
      ]
    }
  ],
  "nodes": [
    {
      "children": [
        1
      ],
      "matrix": [
        1.0,
        0.0,
        0.0,
        0.0,
        0.0,
        2.220446049250313e-16,
        -1.0,
        0.0,
        0.0,
        1.0,
        2.220446049250313e-16,
        0.0,
        0.0,
        0.0,
        0.0,
        1.0
      ],
      "name": "Sketchfab_model"
    },
    {
      "children": [
        2
      ],
      "matrix": [
        1.0,
        0.0,
        0.0,
        0.0,
        0.0,
        0.0,
        1.0,
        0.0,
        0.0,
        -1.0,
        0.0,
        0.0,
        0.0,
        0.0,
        0.0,
        1.0
      ],
      "name": "27248378a6f34d5e8b0e0a99dda95f55.fbx"
    },
    {
      "children": [
        3,
        9,
        12,
        14,
        16,
        18,
        21,
        24
      ],
      "name": "RootNode"
    },
    {
      "children": [
        4,
        5,
        7
      ],
      "matrix": [
        99.99999999997272,
        -6.278330602071059e-05,
        3.894142821536563e-05,
        0.0,
        3.895951958567159e-05,
        0.028832348980197636,
        -99.99997295528604,
        0.0,
        6.277206131266412e-05,
        99.99997295527392,
        0.02883234900464474,
        0.0,
        1.6391277313232422e-05,
        22.773048400878906,
        -74.98812103271484,
        1.0
      ],
      "name": "Cartridge Reader Case"
    },
    {
      "mesh": 0,
      "name": "Cartridge Reader Case_Power & Cartridge_0"
    },
    {
      "children": [
        6
      ],
      "matrix": [
        1.0,
        7.207137041028226e-14,
        -2.842170956677249e-14,
        0.0,
        -7.398463725403008e-14,
        1.026546835899353,
        -1.493822074502202e-11,
        0.0,
        2.842171295385552e-14,
        1.4551915220418948e-11,
        1.0000001192092896,
        0.0,
        -0.182466521859169,
        0.15885287523269653,
        0.07962218672037125,
        1.0
      ],
      "name": "Cap 1"
    },
    {
      "mesh": 1,
      "name": "Cap 1_Power & Cartridge_0"
    },
    {
      "children": [
        8
      ],
      "matrix": [
        1.0,
        7.10195791064905e-14,
        -2.842170965424684e-14,
        0.0,
        -7.101958757351125e-14,
        1.0000001192092896,
        -2.9103830402523608e-11,
        0.0,
        2.8421713040311715e-14,
        2.9103830402523608e-11,
        1.0000001192092896,
        0.0,
        -0.1717054545879364,
        -0.24022507667541504,
        0.09099763631820679,
        1.0
      ],
      "name": "Cap 2"
    },
    {
      "mesh": 2,
      "name": "Cap 2_Power & Cartridge_0"
    },
    {
      "children": [
        10,
        11
      ],
      "matrix": [
        99.99999999997272,
        -6.278330602071059e-05,
        3.894142821536563e-05,
        0.0,
        3.895951958567159e-05,
        0.028832348980197636,
        -99.99997295528604,
        0.0,
        6.277206131266412e-05,
        99.99997295527392,
        0.02883234900464474,
        0.0,
        -4.212744235992432,
        -3.0971617698669434,
        -85.39311218261719,
        1.0
      ],
      "name": "Case"
    },
    {
      "mesh": 3,
      "name": "Case_Bottom Case_0"
    },
    {
      "mesh": 4,
      "name": "Case_Top Case_0"
    },
    {
      "children": [
        13
      ],
      "matrix": [
        99.99999999997272,
        -6.278331170505243e-05,
        3.894144811056222e-05,
        0.0,
        6.277207751709798e-05,
        99.99997296306,
        0.02880533166981286,
        0.0,
        -3.89595225231562e-05,
        -0.02880533164536065,
        99.99997296307212,
        0.0,
        -4.470348358154297e-06,
        -16.26132583618164,
        224.0460205078125,
        1.0
      ],
      "name": "Controller Ports"
    },
    {
      "mesh": 5,
      "name": "Controller Ports_Ports & Inside_0"
    },
    {
      "children": [
        15
      ],
      "matrix": [
        99.99999999997272,
        -6.278330602071059e-05,
        3.894142821536563e-05,
        0.0,
        3.895951958567159e-05,
        0.028832348980197636,
        -99.99997295528604,
        0.0,
        6.277206131266412e-05,
        99.99997295527392,
        0.02883234900464474,
        0.0,
        41.374916076660156,
        -46.71977615356445,
        -36.83393478393555,
        1.0
      ],
      "name": "Model Label"
    },
    {
      "mesh": 6,
      "name": "Model Label_Labels_0"
    },
    {
      "children": [
        17
      ],
      "matrix": [
        99.9968063580692,
        -0.7953707451471744,
        -0.00022333988459608684,
        0.0,
        5.99131127444032e-06,
        0.028833213382138546,
        -99.99997295504421,
        0.0,
        0.7953708978454833,
        99.99681745972121,
        0.028832351204345595,
        0.0,
        0.02327561378479004,
        24.823955535888672,
        149.96705627441406,
        1.0
      ],
      "name": "Power Control Panel"
    },
    {
      "mesh": 7,
      "name": "Power Control Panel_Power & Cartridge_0"
    },
    {
      "children": [
        19
      ],
      "matrix": [
        1204.4300537109375,
        0.0,
        0.0,
        0.0,
        0.0,
        106.32983609697642,
        107.05968564586458,
        0.0,
        0.0,
        -66.1689836310351,
        65.71789503907675,
        0.0,
        0.0,
        221.80467224121094,
        374.4828796386719,
        1.0
      ],
      "name": "Area"
    },
    {
      "children": [
        20
      ],
      "matrix": [
        1.0,
        0.0,
        0.0,
        0.0,
        0.0,
        2.220446049250313e-16,
        1.0,
        0.0,
        0.0,
        -1.0,
        2.220446049250313e-16,
        0.0,
        0.0,
        0.0,
        0.0,
        1.0
      ],
      "name": "Object_19"
    },
    {
      "name": "Object_20"
    },
    {
      "children": [
        22
      ],
      "matrix": [
        -575.3854700194917,
        72.36883968914796,
        -390.3253106185017,
        0.0,
        99.93784194691739,
        89.1176005686815,
        -130.79716693602583,
        0.0,
        93.0161888635999,
        -419.78734001245186,
        -214.94810605198373,
        0.0,
        256.80426025390625,
        252.43585205078125,
        -363.60479736328125,
        1.0
      ],
      "name": "Area.001"
    },
    {
      "children": [
        23
      ],
      "matrix": [
        1.0,
        0.0,
        0.0,
        0.0,
        0.0,
        2.220446049250313e-16,
        1.0,
        0.0,
        0.0,
        -1.0,
        2.220446049250313e-16,
        0.0,
        0.0,
        0.0,
        0.0,
        1.0
      ],
      "name": "Object_22"
    },
    {
      "name": "Object_23"
    },
    {
      "children": [
        25
      ],
      "matrix": [
        699.0418701171875,
        0.0,
        0.0,
        0.0,
        0.0,
        -187.18284606933386,
        -2.8263823419646815e-05,
        0.0,
        0.0,
        7.258425386477657e-05,
        -480.7037963867134,
        0.0,
        0.0,
        -273.81463623046875,
        0.0,
        1.0
      ],
      "name": "Area.002"
    },
    {
      "children": [
        26
      ],
      "matrix": [
        1.0,
        0.0,
        0.0,
        0.0,
        0.0,
        2.220446049250313e-16,
        1.0,
        0.0,
        0.0,
        -1.0,
        2.220446049250313e-16,
        0.0,
        0.0,
        0.0,
        0.0,
        1.0
      ],
      "name": "Object_25"
    },
    {
      "name": "Object_26"
    }
  ],
  "samplers": [
    {
      "magFilter": 9729,
      "minFilter": 9987,
      "wrapS": 10497,
      "wrapT": 10497
    }
  ],
  "scene": 0,
  "scenes": [
    {
      "name": "Sketchfab_Scene",
      "nodes": [
        0
      ]
    }
  ],
  "textures": [
    {
      "sampler": 0,
      "source": 0
    },
    {
      "sampler": 0,
      "source": 1
    },
    {
      "sampler": 0,
      "source": 2
    },
    {
      "sampler": 0,
      "source": 3
    },
    {
      "sampler": 0,
      "source": 4
    },
    {
      "sampler": 0,
      "source": 5
    },
    {
      "sampler": 0,
      "source": 6
    },
    {
      "sampler": 0,
      "source": 7
    },
    {
      "sampler": 0,
      "source": 8
    },
    {
      "sampler": 0,
      "source": 9
    },
    {
      "sampler": 0,
      "source": 10
    },
    {
      "sampler": 0,
      "source": 11
    },
    {
      "sampler": 0,
      "source": 12
    },
    {
      "sampler": 0,
      "source": 13
    },
    {
      "sampler": 0,
      "source": 14
    }
  ]
}
